<svg version="1.2" xmlns="http://www.w3.org/2000/svg" viewBox="0 0 905 424" width="905" height="424">
	<title>Logo</title>
	<style>
		.s0 { fill: #2d543d } 
		.s1 { fill: #ffebdc } 
		.s2 { fill: #513b2c } 
		.s3 { fill: #6cffab } 
	</style>
	<g id="Background">
		<path id="Path 0" fill-rule="evenodd" class="s0" d="m434.7 0h111.3l0.5 5.3c0.2 2.8 0.9 27.9 1.5 55.7 0.5 27.8 1.2 65.8 2.1 118.5l11.6 39c6.4 21.4 11.8 39.2 11.9 39.5 0.2 0.3 0.6 0.3 0.8 0 0.2-0.3 6.1-18.7 12.9-41 12.3-39.9 12.6-41 18.1-72.5 3.1-17.6 8.2-48.4 11.5-68.5 3.2-20.1 7.2-45.2 11.6-75.3l52.5 0.7c28.9 0.3 77.5 1.1 163.5 2.8l53 44.9 0.7 5.2c0.3 2.9 1.3 16.9 2.2 31.2 0.9 14.3 2.1 35.9 2.6 48 0.5 12.1 1 28.6 1 51.5l-37.5 40.9-21.7 0.1c-20.3 0-21.8 0.1-21.2 1.7 0.3 1 3.4 11.7 7 23.8 3.6 12.1 9.7 33.5 13.5 47.5 3.9 14 10.8 40.8 15.4 59.5 4.6 18.7 9.6 39.7 11.2 46.7 1.5 7 2.4 13.1 2 13.5-0.5 0.4-14.4 1.1-31 1.5-16.6 0.3-38.5 0.7-67.2 0.8l-1.8-16.2c-1-9-3-24.6-4.3-34.8-1.3-10.2-2.5-18.6-2.6-18.7-0.2-0.1-0.6 2.6-1 6-0.4 3.4-1.9 19-3.4 34.7-1.4 15.7-2.9 28.8-3.3 29.1-0.3 0.4-43.6 1.2-96.1 1.9-52.5 0.6-105.6 1-140.4 0.5l-2.7-9.5c-1.5-5.2-7.5-26.6-13.3-47.5-5.9-20.9-19.6-68.8-50.6-175l-6.5-61.5c-3.5-33.8-7.8-75-9.5-91.5-1.7-16.5-3.3-31.9-3.7-34.3zm353.6 100.5l-8.2 30c3.2 18.5 3.7 19.9 5.9 21 1.4 0.7 5.9 1.8 10 2.4 4.1 0.5 8.8 0.7 10.4 0.3 1.6-0.3 3.2-1.1 3.6-1.7 0.4-0.5 2.3-4.8 4.2-9.5l3.5-8.5-1.9-30c-8.6-12.4-11.4-16.3-11.7-16.7-0.4-0.4-4.1 2.3-8.2 6zm-512.9-27.5h72.6l3.2 3.9c1.8 2.1 7.2 8.1 20.7 22.6l5.5 42c3.1 23.1 7.2 53.5 9.1 67.5 1.9 14 3.6 26.6 3.7 27.8 0.1 1.3 0 2.5-0.2 2.8-0.3 0.2-10.2-13-22.1-29.3-11.8-16.4-28.5-39.6-37-51.5-12.2-17.2-15.9-21.7-17.7-21.8-1.8 0-2.3 0.7-2.7 3.3-0.3 1.8-1 23.9-1.7 49.2-0.7 29.7-0.9 69.1-0.5 111 0.4 35.8 1.1 77.8 1.6 93.5 0.5 15.7 0.6 28.9 0.3 29.5-0.5 0.5-12.1 0.6-30.2 0.2-16.3-0.4-29.6-0.8-29.8-0.9-0.1-0.2-0.9-9.7-1.7-21.3-0.8-11.5-2.4-37.4-3.5-57.5-1-20.1-2.2-42.4-3-63h-2.5c-2.2 0-4.9 3.4-18.4 22.8-8.7 12.5-18 25.9-20.7 29.7-2.7 3.9-11.3 16.5-19.2 28-7.8 11.6-14.6 21.1-15 21.3-0.4 0.1-0.4-4.2 0.1-9.5 0.4-5.4 2.1-23.5 3.8-40.3 1.6-16.8 4.5-43.5 6.5-59.5 1.9-16 4-29.6 4.6-30.5 0.7-0.8 6.4-7 24.3-26h38.5l0.5-56.7c0.4-31.2 0.8-57.6 1-58.5 0.3-1 7.1-7.9 15.2-15.3z"/>
		<path id="Path 1" class="s1" d="m192 19.1c-11.8 1.6-52.6 7-90.5 12-38 4.9-69 9.1-69.1 9.2 0 0.1-3.8 12.6-8.4 27.7l-8.2 27.5c7.3 28.7 12.8 49.2 16.9 64l7.5 27c-0.9 45.7-1.5 85.8-1.8 118.5l-0.6 59.5c8.7 31 11.6 40.3 12 40.6 0.4 0.4 37.8 1.2 83.2 1.8 45.4 0.7 82.6 1.1 82.6 0.9 0.1-0.2-0.3-11.1-0.8-24.3-0.5-13.2-1.2-25.3-1.6-26.9-0.6-2.5-1.3-3-4.2-3.3-1.9-0.2-6.8-0.8-10.8-1.3-3.9-0.6-7.8-1-8.5-1-0.6 0-6.1 7.2-12.2 16-6.1 8.8-11.2 16-11.5 16-0.3 0 0-6 0.7-13.3 0.6-7.2 1.2-15 1.2-17.2l0.1-4c-60.8-7.4-78.6-9.7-78.8-9.8-0.1-0.1 0.7-10.3 1.8-22.7 1.1-12.4 3.5-35.8 5.3-52.1l3.2-29.6c20.2-1 35.6-1.6 47.3-2 17.8-0.7 21.2-1 21.2-2.3 0-0.8-1.1-11.8-2.6-24.5-1.4-12.7-2.7-23.2-2.9-23.5-0.2-0.3-7.9-0.2-17.2 0.1-9.2 0.4-23.3 0.8-31.3 1l-14.4 0.4c-8.8-34.9-13.7-54.8-16.5-66.8-2.8-11.9-5.1-21.9-5.1-22.2 0-0.3 2.4-0.5 5.2-0.5 2.9 0 35.2-2.3 71.8-5 36.6-2.7 66.6-5.1 66.8-5.2 0.1-0.2-0.9-12-2.2-26.3-1.4-14.3-2.8-29.5-3.1-33.8-0.3-5.3-0.9-7.7-1.8-7.6-0.6 0.1-10.9 1.4-22.7 3z"/>
		<path id="Path 2" class="s2" d="m220.5 0.6c-0.6 0.2-23.5 3.3-51 6.9-27.5 3.6-70.3 9.2-95 12.5-24.8 3.3-46.7 6.2-48.8 6.5l-3.7 0.5c-5.4 16.7-10.1 31.9-14 44.5-3.9 12.7-7 23.9-7 25 0 1.1 2.9 13 6.5 26.5 3.5 13.5 9 33.9 12.2 45.5l5.9 21c-1.1 41.8-1.7 81.2-2.1 114.5l-0.6 60.5 15.8 55c46.3 1 89.5 1.8 125.8 2.4 36.3 0.6 66.1 0.9 66.2 0.8 0.1-0.1-0.3-9-0.8-19.7-0.5-10.7-1.3-28.9-1.7-40.3-0.6-16.9-1-20.9-2.2-21.6-0.8-0.5-6.7-1.4-13-2.1-6.3-0.6-12.3-1.3-13.3-1.6-1.2-0.3-3 1.4-6.2 6.1-2.5 3.6-4.4 6.7-4.3 6.9 0.2 0.3 4.4 1 9.3 1.6 4.9 0.6 10.1 1.2 11.5 1.4 1.8 0.2 2.7 1 3.2 3.2 0.4 1.6 1.1 13.7 1.6 26.9 0.5 13.2 0.9 24.1 0.8 24.3 0 0.2-37.2-0.2-82.6-0.9-45.4-0.6-82.8-1.4-83.2-1.8-0.4-0.3-3.3-9.6-6.4-20.6l-5.6-20c0.9-92.2 1.5-132.3 1.8-148.5l0.6-29.5c-11.6-41.8-17.1-62.3-19.7-72.5l-4.7-18.5c12.8-42.6 16.6-55.1 16.6-55.2 0.1-0.1 13.8-2 30.6-4.2 16.8-2.2 56.6-7.4 88.5-11.6 31.9-4.1 59.3-7.7 61-8l3-0.5c1.2 12 2.7 27.2 4.1 41.5 1.3 14.3 2.3 26.1 2.2 26.3-0.2 0.1-30.2 2.5-66.8 5.2-36.6 2.7-68.9 5-71.8 5-2.8 0-5.2 0.2-5.2 0.5 0 0.3 2.3 10.3 5.1 22.3 2.8 11.9 7.7 31.8 10.8 44.2l5.7 22.5c22.4-0.6 36.5-1 45.7-1.4 9.3-0.3 17-0.4 17.2-0.1 0.2 0.3 1.5 10.8 2.9 23.5 1.5 12.7 2.6 23.7 2.6 24.5 0 1.3-3.4 1.6-21.2 2.3-11.7 0.4-27.2 1-34.3 1.4l-13 0.6c-5 45.9-7.4 69.3-8.5 81.7-1.1 12.4-1.9 22.6-1.8 22.7 0.2 0.1 17.1 2.3 37.5 4.8 20.5 2.5 38.3 4.5 39.5 4.5 2.1 0 2.4-0.6 3-6.7 0.3-3.8 0.5-6.9 0.5-7-0.1-0.2-14.4-2-31.9-4-17.4-2.1-32-4.2-32.5-4.6-0.4-0.5 0-9 1.1-19 1-10 2.8-27 4-37.9 1.1-10.8 2.3-19.9 2.6-20.2 0.3-0.3 15.4-1.1 33.6-1.8l33.2-1.3c4.1-6.3 4.1-7 3.1-15.3-0.5-4.8-2.4-21.1-4-36.2-1.6-15.1-3-27.5-3.2-27.6-0.1 0-14.6 0.5-32.2 1.1-17.6 0.7-32.2 1-32.5 0.7-0.3-0.2-3.1-11.1-6.2-24.1-3.2-13-6.3-26.4-7-29.8l-1.3-6.1c4.6-0.8 36.4-3.2 73.5-5.8 37.1-2.6 67.6-4.8 67.8-4.8 0.2-0.1-1.1-14-2.8-31.1-1.6-17.1-3.7-38.2-4.5-47-0.8-8.8-1.5-16.8-1.5-17.8 0-1.3-0.8-1.7-3.8-1.6-2 0-4.2 0.2-4.7 0.5zm87.5 227.1c0 6 1.6 24.4 3.5 41.3 1.9 16.8 4 33.9 4.5 38 0.6 4.2 7.6 28.6 16.1 56 8.2 26.7 15.9 51.3 16.9 54.8l2 6.2h56c7.1-22.9 15.4-48.9 23-72.5l13.8-43c13.3-68.2 17.2-88.8 17.2-89.7 0-1.7-2.2-1.8-32-1.8h-32c-0.8 4.3-4.1 22.8-8 44-3.8 21.2-7.8 41.5-8.7 45.3-1 3.7-2 6.7-2.3 6.7-0.3 0.1-1.1-1.9-1.8-4.2-0.8-3-1.5-17.6-2-47.8l-0.7-43.5-65.5-0.5z"/>
		<path id="Path 3" fill-rule="evenodd" class="s3" d="m451 15h80.5l0.7 9.2c0.4 5.1 1.3 42.6 3.1 157.3l11.7 39.5c6.5 21.7 14.8 49.9 18.5 62.5 3.6 12.6 6.8 23.7 7.1 24.5 0.5 1.3 0.6 1.3 1.3 0 0.5-0.8 6.5-19.5 13.4-41.5 6.9-22 15.8-50.3 19.7-63 6.1-19.9 7.8-27.1 12.5-54 3-17.1 7.3-42.3 9.5-56 2.3-13.8 5.6-35.4 7.5-48 1.9-12.7 3.7-24.5 4.5-29.5h33.8c18.5 0 35.4 0.4 37.5 0.8 3.7 0.7 3.8 0.8 3.3 4.2-0.3 1.9-2.4 15.9-4.7 31-2.2 15.1-5.8 37.4-8 49.5-2.2 12.1-6.9 36.6-10.5 54.5-4.8 23.9-8.1 37.6-12.6 52-3.3 10.7-12 36.8-19.3 58-7.3 21.2-19.2 55.1-26.3 75.5-7.2 20.4-15.5 43.7-23.9 67l-77.8 0.5-5.4-19.7c-2.9-10.9-12.7-45.4-21.7-76.8-8.9-31.4-20.6-71.6-35.5-122l-8.9-83.5c-4.9-45.9-9.1-85.4-9.4-87.8zm281.4 1.8l52.5 0.8c28.9 0.4 53.4 1 54.5 1.5 1.1 0.4 10.1 7.6 20 16 9.9 8.4 19.5 16.5 24.5 20.9l1.5 24.8c0.8 13.6 2 34.9 2.5 47.2 0.5 12.4 1.1 28.9 1.5 50.9l-30 33.1-56.1 0.5 5.3 17.5c3 9.7 9 30.2 13.4 45.5 4.4 15.4 11.3 40.7 15.4 56 4 15.4 9.6 38.2 12.5 50.5 2.8 12.4 4.9 22.8 4.5 23-0.3 0.3-15.7 0.7-67.5 1v-2.7c0-1.5-1.1-12.4-2.5-24.3-1.4-11.8-4.8-37.2-7.5-56.5-2.8-19.2-7.5-50-10.5-68.5-3-18.4-5.9-34.4-6.4-35.5-0.7-1.5-1-1.6-1.4-0.5-0.2 0.9-1 13.7-1.6 28.5-0.6 14.9-2 40.3-3.1 56.5-1.1 16.3-2.9 39.9-3.9 52.5-1.1 12.7-2.6 29.4-4.6 51.3l-20 0.6c-11 0.4-37 0.6-57.7 0.6-29.8 0-37.7-0.2-37.4-1.2 0.2-0.7 11.9-35.9 25.9-78.3 14.1-42.3 29.6-90 34.6-106 7.8-25 10-33.7 16.1-64 3.8-19.2 9.4-48.5 12.4-65 3-16.5 7.2-40.5 9.3-53.3zm55.8 83.7l-8.2 30c3.2 18.5 3.7 19.8 5.9 21 1.4 0.7 5.9 1.7 10 2.3 4.1 0.6 8.8 0.8 10.4 0.4 1.5-0.4 3.2-1.1 3.6-1.7 0.4-0.5 2.3-4.8 4.2-9.5l3.4-8.5-1.8-30c-8.6-12.4-11.4-16.3-11.8-16.7-0.3-0.4-4 2.3-8.2 6zm-507.8-12.5h60.5l5.9 6.2c3.2 3.5 7 7.6 8.5 9.3 2.4 2.8 2.8 5 7.6 41.5 2.8 21.1 4.9 38.6 4.8 38.8-0.1 0.1-8.6-11.4-18.9-25.5-10.2-14.2-20-28.2-24.9-36.3l-10.7-0.1c-7.6 0-11.1 0.4-11.8 1.3-0.6 0.7-2.1 3.6-3.3 6.5-1.9 4.8-2.3 8.1-3.1 34-0.6 15.8-1.3 37.5-2.2 67.8l-14.9-14.5h-19v-25.3c0-13.9 0.4-38.7 1.4-85.2zm-69.2 144l61.2-0.1 20.5 19.1v23.2c0 12.8 0.5 41.9 1 64.8 0.5 22.8 1.2 48 2.2 70.5l-16.3-0.8c-9-0.4-16.4-0.9-16.5-1-0.1-0.1-0.9-13.5-1.8-29.7-1-16.3-2.5-45.5-3.5-65-1.7-34.5-1.9-35.7-7.1-47h-11c-10.3 0-11.1 0.1-12.5 2.2-0.8 1.2-10.4 14.9-21.2 30.3-10.8 15.4-19.9 28.1-20.2 28.2-0.3 0.1 0-5 0.7-11.5 0.6-6.5 2.6-23.7 7.4-64.7z"/>
		<path id="Path 4" class="s1" d="m322.4 235.3c0.3 1.7 2.4 19.2 4.6 38.7l4 35.5 30.5 99.5h35c10-32.2 17.4-55.2 22.8-72 9.2-28.5 10.3-32.8 16.8-66 3.8-19.5 6.9-36.3 6.9-37.3 0-1.5-1.5-1.7-16.7-1.7h-16.8c-2.6 13.6-4.8 25.1-6.4 34.5-1.7 9.4-3.5 19-4 21.5-0.5 2.5-1.5 7.4-2.1 11-0.7 3.6-4.6 18-8.7 32-4.1 14-8 27.2-8.6 29.3-0.7 2-1.5 3.4-1.8 3-0.3-0.5-4.5-13.4-9.2-28.8l-8.7-28c0-49.6-0.4-66.4-0.8-69.3l-0.7-5.2h-36.6z"/>
		<path id="Path 5" fill-rule="evenodd" class="s0" d="m806.9 67.3c0.9 1.2 6.5 9 23.1 32.2l2.7 38-5.5 13c-2.9 7.2-5.9 13.5-6.5 14.2-0.7 0.6-4.3 2-8.2 3.1-6.7 1.9-7.5 1.9-17.5 0.5-7.9-1.1-12.2-2.4-17.2-4.9-3.8-1.9-7.1-4-7.5-4.6-0.3-0.7-1.7-7.6-5.3-29.3l5-18.5c2.8-10.2 5.6-19 6.3-19.7 0.6-0.6 7.4-6.8 15-13.6 13.9-12.5 13.9-12.6 15.6-10.4zm-18.6 33.2l-8.2 30c3.2 18.5 3.7 19.8 5.9 21 1.4 0.7 5.9 1.7 10 2.3 4.1 0.6 8.8 0.8 10.4 0.4 1.5-0.4 3.2-1.1 3.6-1.7 0.4-0.6 2.3-4.8 4.2-9.5l3.4-8.5-1.8-30c-8.6-12.4-11.4-16.3-11.8-16.7-0.3-0.4-4 2.3-8.1 6z"/>
	</g>
</svg>