<svg version="1.2" xmlns="http://www.w3.org/2000/svg" viewBox="0 0 1280 720" width="1280" height="720">
	<title>image</title>
	<style>
		.s0 { fill: #ffffff } 
	</style>
	<path id="Path 0" fill-rule="evenodd" class="s0" d="m301.5 220.5l0.5 33.5h-9l-0.2-16.3c-0.1-9 0.3-16.7 0.7-17.1 0.5-0.4 2.5-0.6 8-0.1zm43.5-0.5v5.5c0 5.2 0.1 5.4 2 4.5 1.1-0.6 3.7-1 5.8-1 2 0 4.4 0.6 5.3 1.3 0.9 0.7 2.1 2.2 2.7 3.5 0.7 1.2 1.2 6.3 1.2 20.2h-9v-7.7c0-5-0.4-8.3-1.2-9.1-0.7-0.7-2.1-1.2-3-1.2-1 0-2.2 0.9-2.8 2-0.6 1.1-1 5.2-1 16h-9l-0.2-16.3c-0.1-9 0.2-16.7 0.7-17 0.5-0.4 2.6-0.7 8.5-0.7zm-68.1 9c5.2 0 6.5 0.4 8.6 2.5 1.4 1.4 2.8 4 3.1 5.8 0.3 1.7 0.4 6.1-0.1 16.2l-6 0.3c-3.3 0.2-8 0.4-10.3 0.5-3.6 0.2-4.7-0.3-6.4-2.3-1.2-1.6-1.8-3.6-1.6-5.5 0.2-1.9 1.3-3.7 3.3-5 1.6-1.2 5.1-2.4 7.7-2.8 3.7-0.5 4.7-1.1 4.3-2.2-0.3-0.8-1.6-1.5-3-1.5-1.4 0-2.5 0.4-2.5 1 0 0.6-1.8 1-4 1-2.2 0-4.2-0.4-4.5-1-0.3-0.6 0.8-2.3 2.4-4 2.6-2.7 3.6-3 9-3zm-3.4 18.8c0.8 0.6 2.2 1 3 0.7 0.8-0.3 1.9-1.4 2.5-2.5 0.9-1.8 0.7-2-1.9-2-1.6 0-3.4 0.6-4 1.3-0.8 0.9-0.7 1.5 0.4 2.5zm53.6 18.2c51.9 0 60.1 0.2 61.4 1.5 1.2 1.2 1.5 4.4 1.5 16 0 11.9-0.3 14.8-1.6 16-1.3 1.3-7.3 1.5-81.4 1.5v32l74.2 0.5 1.9 2.5c1.7 2.2 2 4.1 2 14.5 0 10.4-0.3 12.3-3.9 17l-74.2 0.5v33h40.8c37.2 0 40.9 0.2 42.5 1.8 1.5 1.5 1.8 3.5 1.7 15.7 0 11.8-0.3 14.3-1.8 15.8-1.6 1.7-5.5 1.8-62.4 1.7-52.7 0-61-0.2-62.3-1.5-1.3-1.3-1.5-12-1.6-83.4 0-74.8 0.1-82.1 1.6-83.5 1.5-1.4 8.5-1.6 61.6-1.6zm394.6 0c17.7 0 18.4 0.1 20.6 2.3 1.7 1.6 6.5 16 19.1 57.2 9.3 30.3 17.1 55.4 17.4 56 0.3 0.6 3.4-8.4 6.9-20 3.5-11.6 11.2-36.7 17-56 7.7-25.1 11.4-35.6 13-37.2 2.1-2.2 2.9-2.3 20.8-2.3 15.1 0 18.8 0.3 20 1.5 0.8 0.8 1.5 2.2 1.5 3 0 0.8-11.4 37.4-25.4 81.3-21.3 66.5-25.9 80.1-28 82-2.5 2.1-3.2 2.2-25.6 2.2-22.4 0-23.1-0.1-25.6-2.2-2.1-1.9-6.7-15.4-27.9-81.8-14-43.7-25.5-80.5-25.6-81.7-0.2-1.3 0.5-2.6 1.7-3.2 1.1-0.6 9.7-1.1 20.1-1.1zm250.8 0.5l9.5 3.3c5.2 1.7 12.2 4.9 15.5 7.1 3.3 2.2 7.4 5.4 9.2 7.3 1.7 1.8 4.8 6 6.7 9.3 2 3.3 4.3 9 5.1 12.8 0.8 3.7 1.5 10.6 1.5 15.5 0 6.1-0.6 10.8-2.1 15.7-1.2 3.9-3.6 9.3-5.4 12-1.7 2.8-5.4 7.1-8.1 9.6-2.7 2.5-6.8 5.6-9.1 7-2.4 1.3-4.3 2.6-4.3 2.9 0 0.3 7.4 13.9 16.5 30.3 9.1 16.3 16.5 30.8 16.5 32.2 0 1.5-0.8 2.9-2 3.5-1.1 0.6-10.5 1-40.5 1.1l-2.5-2.7c-1.4-1.4-8.8-14.8-30.5-56.9l-24.5-0.5v28.3c0 25.3-0.2 28.4-1.8 30-1.5 1.6-3.7 1.8-20.5 1.7-15.3 0-19-0.3-20.2-1.5-1.3-1.3-1.5-12-1.6-83.4 0-76 0.1-82.1 1.7-83.6 1.5-1.5 6.1-1.6 90.9-1zm-48.5 74.5c33.6 0 34.7-0.1 39.5-2.5 3-1.4 6-4 7.5-6.2 1.7-2.5 2.6-5.4 2.9-9.2 0.2-3.1-0.2-7.4-0.9-9.6-0.7-2.2-2.6-5.5-4.4-7.3-1.9-2-5.1-3.9-8.1-4.8-3.5-1-9.8-1.4-20.8-1.4h-15.7zm-427.5-33.9c4.4-0.1 10.6 0.6 13.7 1.4 3.2 0.8 8 2.6 10.8 4 2.7 1.4 6.6 4 8.6 5.8 2 1.7 5.1 5.5 6.9 8.2 1.8 2.8 4.6 8.6 9 21l0.3 42c0.2 36.2 0 42.3-1.3 44.3-1.5 2.1-1.9 2.2-20 2.2-15.1 0-18.8-0.3-20-1.5-0.8-0.8-1.7-2.5-2-3.7-0.3-1.3-0.6-19.2-1-77.4l-2.8-4.2c-1.5-2.3-4.2-5.1-6-6.1-1.7-1.1-5.5-2.2-8.2-2.5-2.8-0.3-6.8-0.1-9 0.4-2.2 0.5-5.4 2-7.2 3.2-1.8 1.3-4.3 4.1-5.5 6.3-2.3 3.9-2.3 4.5-2.6 41-0.1 20.4-0.4 38-0.7 39.3-0.3 1.2-1.2 2.9-2.1 3.7-1.2 1.2-4.9 1.5-19.2 1.5-13.8 0-18.1-0.3-19.7-1.4-2-1.4-2-2.6-2-61.5 0-56.3 0.1-60.1 1.8-61.8 1.6-1.6 3.8-1.8 18.7-1.8 13.7 0 17.2 0.3 18.5 1.5 0.9 0.8 1.9 3.8 3 11.8l4.2-3.9c2.4-2.1 6.5-5 9.3-6.4 2.7-1.4 7.6-3.1 10.7-3.9 3.2-0.8 9.4-1.5 13.8-1.5zm82.2 2c7.9-0.1 15.4 0.4 16.8 0.9 1.6 0.7 3.3 2.8 4.8 6.3 1.3 2.8 7.7 19.9 14.3 37.9 6.5 18 12.1 32.8 12.4 32.8 0.3 0 6.6-16.5 14-36.7 7.4-20.1 14.2-37.6 15.2-38.7 1.5-1.9 2.8-2.1 17.5-2.4 11.5-0.2 16.5 0.1 18.3 1 1.4 0.8 2.6 2.4 2.8 3.8 0.2 1.5-9.1 25.7-23.3 60.5-16 39.4-24.3 58.6-25.8 59.8-1.9 1.6-4.3 1.8-19 1.7-14.6 0-16.9-0.2-18.4-1.7-0.9-1-2.6-4-3.8-6.8-1.3-2.7-12-29.1-24-58.5-16.7-41.3-21.5-54-20.9-55.8 0.4-1.3 1.7-2.7 2.8-3.2 1.2-0.5 8.5-0.9 16.3-0.9zm-268.2-80.1c1.9 0 3.8 0.6 4.1 1.3 0.5 1 0.8 1 1.7 0 0.6-0.7 3.3-1.3 5.9-1.3 4.1 0 5.2 0.4 7.3 3 2.1 2.5 2.5 4.1 2.5 9 0 3.3-0.6 7.2-1.3 8.6-0.6 1.5-2.4 3.3-4 4-1.5 0.8-3.7 1.4-5 1.4-1.2 0-3.2-0.7-4.5-1.5-2.2-1.5-2.2-1.5-2.2 9.5l-8.5-0.5-0.2-15.5c-0.1-8.5 0-16 0.2-16.7 0.3-0.7 2-1.3 4-1.3zm5 15.3c0.3 1.6 1.3 2.9 2.5 3.2 1.1 0.3 2.7-0.1 3.5-0.7 0.9-0.7 1.6-2.8 1.5-4.5 0-1.8-0.2-4-0.5-4.8-0.3-0.8-1.6-1.5-3-1.5-1.9 0-2.8 0.7-3.6 2.8-0.5 1.5-0.7 3.9-0.4 5.5zm62.7-15.3c5.1 0 6.2 0.4 8.8 3 2.9 2.9 3 3.3 3 22l-5.3-0.1c-2.8 0-6.8 0.3-8.7 0.6-2.4 0.5-4.5 0.2-6.8-0.9-1.7-0.9-3.5-2.6-3.8-3.8-0.3-1.3 0-3.5 0.5-5 0.7-1.6 2.5-3.4 4.3-4.2 1.8-0.8 5-1.7 7-2 2.1-0.3 3.8-1 3.8-1.6 0-0.5-0.8-1.3-1.8-1.6-0.9-0.4-2.5-0.2-3.5 0.5-0.9 0.6-3.3 1.1-5.2 1.1-2.8 0-3.5-0.4-3.6-1.9 0-1.1 1.1-2.9 2.7-4 2-1.6 4.2-2.1 8.6-2.1zm-4.4 17.6c0.1 0.8 0.9 1.6 1.7 1.9 0.8 0.3 1.7 0.5 1.9 0.5 0.3 0 1.2-0.7 2-1.5 0.9-0.8 1.6-1.9 1.6-2.5 0-0.5-1-1-2.3-0.9-1.2 0-2.9 0.3-3.7 0.6-0.7 0.2-1.3 1.1-1.2 1.9z"/>
</svg>